<mxfile host="app.diagrams.net" agent="Mozilla/5.0 (Windows NT 10.0; Win64; x64) AppleWebKit/537.36 (KHTML, like Gecko) Chrome/131.0.0.0 Safari/537.36" version="25.0.1">
  <diagram name="Page-1" id="Ij0LGClyuxL_7oX-fcYG">
    <mxGraphModel dx="1434" dy="738" grid="1" gridSize="10" guides="1" tooltips="1" connect="1" arrows="1" fold="1" page="1" pageScale="1" pageWidth="850" pageHeight="1100" math="0" shadow="0">
      <root>
        <mxCell id="0" />
        <mxCell id="1" parent="0" />
        <mxCell id="MC0uKTywHseRt5bzIChA-2" value="Rev 2" style="rounded=0;whiteSpace=wrap;html=1;" parent="1" vertex="1">
          <mxGeometry x="340" y="90" width="120" height="60" as="geometry" />
        </mxCell>
        <mxCell id="MC0uKTywHseRt5bzIChA-32" style="edgeStyle=orthogonalEdgeStyle;rounded=0;orthogonalLoop=1;jettySize=auto;html=1;endArrow=diamondThin;endFill=1;exitX=0.5;exitY=0;exitDx=0;exitDy=0;" parent="1" source="MC0uKTywHseRt5bzIChA-3" target="MC0uKTywHseRt5bzIChA-2" edge="1">
          <mxGeometry relative="1" as="geometry">
            <mxPoint x="320" y="340" as="sourcePoint" />
            <Array as="points">
              <mxPoint x="305" y="300" />
              <mxPoint x="370" y="300" />
            </Array>
          </mxGeometry>
        </mxCell>
        <mxCell id="MC0uKTywHseRt5bzIChA-3" value="Power System" style="rounded=0;whiteSpace=wrap;html=1;" parent="1" vertex="1">
          <mxGeometry x="270" y="340" width="70" height="60" as="geometry" />
        </mxCell>
        <mxCell id="MC0uKTywHseRt5bzIChA-5" value="Payload System" style="rounded=0;whiteSpace=wrap;html=1;" parent="1" vertex="1">
          <mxGeometry x="365" y="340" width="70" height="60" as="geometry" />
        </mxCell>
        <mxCell id="MC0uKTywHseRt5bzIChA-34" style="edgeStyle=orthogonalEdgeStyle;rounded=0;orthogonalLoop=1;jettySize=auto;html=1;entryX=0.75;entryY=1;entryDx=0;entryDy=0;endArrow=diamondThin;endFill=1;" parent="1" source="MC0uKTywHseRt5bzIChA-6" target="MC0uKTywHseRt5bzIChA-2" edge="1">
          <mxGeometry relative="1" as="geometry">
            <Array as="points">
              <mxPoint x="495" y="300" />
              <mxPoint x="430" y="300" />
            </Array>
          </mxGeometry>
        </mxCell>
        <mxCell id="MC0uKTywHseRt5bzIChA-6" value="Navigation System" style="rounded=0;whiteSpace=wrap;html=1;" parent="1" vertex="1">
          <mxGeometry x="460" y="340" width="70" height="60" as="geometry" />
        </mxCell>
        <mxCell id="MC0uKTywHseRt5bzIChA-7" value="Aero and Prop System" style="rounded=0;whiteSpace=wrap;html=1;" parent="1" vertex="1">
          <mxGeometry x="560" y="340" width="70" height="60" as="geometry" />
        </mxCell>
        <mxCell id="MC0uKTywHseRt5bzIChA-8" value="Communication System" style="rounded=0;whiteSpace=wrap;html=1;" parent="1" vertex="1">
          <mxGeometry x="150" y="340" width="100" height="60" as="geometry" />
        </mxCell>
        <mxCell id="MC0uKTywHseRt5bzIChA-33" style="edgeStyle=orthogonalEdgeStyle;rounded=0;orthogonalLoop=1;jettySize=auto;html=1;entryX=0.5;entryY=1;entryDx=0;entryDy=0;endArrow=diamondThin;endFill=1;exitX=0.5;exitY=0;exitDx=0;exitDy=0;" parent="1" source="MC0uKTywHseRt5bzIChA-5" target="MC0uKTywHseRt5bzIChA-2" edge="1">
          <mxGeometry relative="1" as="geometry">
            <mxPoint x="410" y="390" as="sourcePoint" />
            <mxPoint x="416" y="180" as="targetPoint" />
            <Array as="points" />
          </mxGeometry>
        </mxCell>
        <mxCell id="MC0uKTywHseRt5bzIChA-35" style="edgeStyle=orthogonalEdgeStyle;rounded=0;orthogonalLoop=1;jettySize=auto;html=1;entryX=0.901;entryY=1.008;entryDx=0;entryDy=0;entryPerimeter=0;endArrow=diamondThin;endFill=1;exitX=0.5;exitY=0;exitDx=0;exitDy=0;" parent="1" source="MC0uKTywHseRt5bzIChA-7" target="MC0uKTywHseRt5bzIChA-2" edge="1">
          <mxGeometry relative="1" as="geometry">
            <mxPoint x="680" y="330" as="sourcePoint" />
            <Array as="points">
              <mxPoint x="595" y="260" />
              <mxPoint x="448" y="260" />
            </Array>
          </mxGeometry>
        </mxCell>
        <mxCell id="MC0uKTywHseRt5bzIChA-36" style="edgeStyle=orthogonalEdgeStyle;rounded=0;orthogonalLoop=1;jettySize=auto;html=1;entryX=0.067;entryY=0.995;entryDx=0;entryDy=0;entryPerimeter=0;exitX=0.5;exitY=0;exitDx=0;exitDy=0;endArrow=diamondThin;endFill=1;" parent="1" source="MC0uKTywHseRt5bzIChA-8" target="MC0uKTywHseRt5bzIChA-2" edge="1">
          <mxGeometry relative="1" as="geometry">
            <Array as="points">
              <mxPoint x="200" y="260" />
              <mxPoint x="348" y="260" />
            </Array>
          </mxGeometry>
        </mxCell>
        <mxCell id="MC0uKTywHseRt5bzIChA-38" value="Receiver" style="rounded=0;whiteSpace=wrap;html=1;" parent="1" vertex="1">
          <mxGeometry x="165" y="420" width="70" height="60" as="geometry" />
        </mxCell>
        <mxCell id="MC0uKTywHseRt5bzIChA-39" value="Transmitter" style="rounded=0;whiteSpace=wrap;html=1;" parent="1" vertex="1">
          <mxGeometry x="165" y="490" width="70" height="60" as="geometry" />
        </mxCell>
        <mxCell id="MC0uKTywHseRt5bzIChA-40" value="GPS" style="rounded=0;whiteSpace=wrap;html=1;" parent="1" vertex="1">
          <mxGeometry x="470" y="510" width="70" height="60" as="geometry" />
        </mxCell>
        <mxCell id="MC0uKTywHseRt5bzIChA-41" value="Video Transmitter" style="rounded=0;whiteSpace=wrap;html=1;" parent="1" vertex="1">
          <mxGeometry x="165" y="570" width="70" height="60" as="geometry" />
        </mxCell>
        <mxCell id="MC0uKTywHseRt5bzIChA-42" value="Flight Controller" style="rounded=0;whiteSpace=wrap;html=1;" parent="1" vertex="1">
          <mxGeometry x="460" y="440" width="70" height="60" as="geometry" />
        </mxCell>
        <mxCell id="MC0uKTywHseRt5bzIChA-43" value="Main Battery" style="rounded=0;whiteSpace=wrap;html=1;" parent="1" vertex="1">
          <mxGeometry x="280" y="430" width="70" height="60" as="geometry" />
        </mxCell>
        <mxCell id="MC0uKTywHseRt5bzIChA-44" value="Flight Controller Battery" style="rounded=0;whiteSpace=wrap;html=1;" parent="1" vertex="1">
          <mxGeometry x="280" y="510" width="70" height="60" as="geometry" />
        </mxCell>
        <mxCell id="MC0uKTywHseRt5bzIChA-45" value="ESC" style="rounded=0;whiteSpace=wrap;html=1;" parent="1" vertex="1">
          <mxGeometry x="560" y="430" width="70" height="60" as="geometry" />
        </mxCell>
        <mxCell id="MC0uKTywHseRt5bzIChA-46" value="PDB" style="rounded=0;whiteSpace=wrap;html=1;" parent="1" vertex="1">
          <mxGeometry x="280" y="590" width="70" height="60" as="geometry" />
        </mxCell>
        <mxCell id="MC0uKTywHseRt5bzIChA-47" value="Payload Servo" style="rounded=0;whiteSpace=wrap;html=1;" parent="1" vertex="1">
          <mxGeometry x="365" y="430" width="70" height="60" as="geometry" />
        </mxCell>
        <mxCell id="MC0uKTywHseRt5bzIChA-48" value="FPV Camera" style="rounded=0;whiteSpace=wrap;html=1;" parent="1" vertex="1">
          <mxGeometry x="460" y="650" width="70" height="60" as="geometry" />
        </mxCell>
        <mxCell id="MC0uKTywHseRt5bzIChA-49" value="Pitot Tube" style="rounded=0;whiteSpace=wrap;html=1;" parent="1" vertex="1">
          <mxGeometry x="570" y="510" width="70" height="60" as="geometry" />
        </mxCell>
        <mxCell id="MC0uKTywHseRt5bzIChA-50" value="Target Detection Camera" style="rounded=0;whiteSpace=wrap;html=1;" parent="1" vertex="1">
          <mxGeometry x="460" y="580" width="70" height="60" as="geometry" />
        </mxCell>
        <mxCell id="MC0uKTywHseRt5bzIChA-51" value="Telemetry Module" style="rounded=0;whiteSpace=wrap;html=1;" parent="1" vertex="1">
          <mxGeometry x="165" y="660" width="70" height="60" as="geometry" />
        </mxCell>
        <mxCell id="MC0uKTywHseRt5bzIChA-52" value="Motor" style="rounded=0;whiteSpace=wrap;html=1;" parent="1" vertex="1">
          <mxGeometry x="580" y="590" width="70" height="60" as="geometry" />
        </mxCell>
        <mxCell id="MC0uKTywHseRt5bzIChA-53" value="Propeller" style="rounded=0;whiteSpace=wrap;html=1;" parent="1" vertex="1">
          <mxGeometry x="590" y="670" width="70" height="60" as="geometry" />
        </mxCell>
      </root>
    </mxGraphModel>
  </diagram>
</mxfile>
